<svg id="Layer_1" data-name="Layer 1" xmlns="http://www.w3.org/2000/svg" viewBox="0 0 284.23 73.61"><defs><style>.cls-1,.cls-3{fill:#0d3411;}.cls-2,.cls-4{fill:#1c9754;}.cls-3{font-size:44.07px;font-family:VAGRoundedStd-Black, VAG Rounded Std;font-weight:800;}.cls-4{font-family:VAGRoundedStd-Bold, VAG Rounded Std;font-weight:700;letter-spacing:0em;}.cls-5{fill:#6d6f1f;}</style></defs><path class="cls-1" d="M79.47,72.66,46.39,62.46A2.3,2.3,0,0,1,45,59.67l7-27.54a2.48,2.48,0,0,1,2.54-1.57A2.8,2.8,0,0,1,56,33.35L49.49,58.71l29.11,9,9-35.38L67.79,26.18a2.57,2.57,0,0,1-1.42-2.79c.25-.8,1.44-1.91,2.54-1.57l.65.2,21.18,6.53a2.3,2.3,0,0,1,1.43,2.79L82,71.09A2.05,2.05,0,0,1,79.47,72.66Z" transform="translate(-29.07 -9.11)"/><path class="cls-2" d="M57.42,9.49c.37-.57.82-.49,1,.18L59.91,15a2.62,2.62,0,0,0,1.45,1.6l4.8,1.66c.61.21.68.71.16,1.11L62.2,22.51a2.86,2.86,0,0,0-.94,2l.05,5.53c0,.7-.4.92-.91.5l-4-3.32a2.31,2.31,0,0,0-2-.36l-4.77,1.76c-.61.23-.93-.13-.73-.8l1.64-5.23a3,3,0,0,0-.32-2.23l-3-4.44c-.38-.56-.17-1,.47-1l5,.09a2.43,2.43,0,0,0,1.84-1Z" transform="translate(-29.07 -9.11)"/><path class="cls-2" d="M79.58,39.27l-13-4a2.16,2.16,0,0,1-1.08-2.68c.31-1.2,1.29-2,2.19-1.68l13,4a2.15,2.15,0,0,1,1.08,2.68C81.46,38.8,80.48,39.55,79.58,39.27Z" transform="translate(-29.07 -9.11)"/><path class="cls-2" d="M76.71,50.51,59.24,45.12a2.15,2.15,0,0,1-1.07-2.68c.3-1.2,1.28-1.95,2.19-1.68l17.46,5.39a2.16,2.16,0,0,1,1.08,2.68C78.59,50,77.61,50.78,76.71,50.51Z" transform="translate(-29.07 -9.11)"/><path class="cls-2" d="M73.84,61.74,56.37,56.36a2.15,2.15,0,0,1-1.07-2.68c.3-1.21,1.28-2,2.18-1.68L75,57.38A2.18,2.18,0,0,1,76,60.07C75.72,61.27,74.74,62,73.84,61.74Z" transform="translate(-29.07 -9.11)"/><text class="cls-3" transform="translate(76.02 59.73)">DOCU<tspan class="cls-4" x="118.42" y="0">CRM</tspan></text><path class="cls-5" d="M104.08,69.56C90.76,76.59,75.8,80.92,61,80.74c-13.55-.16-30-5.27-31.75-22.5A32,32,0,0,1,37,34.61a21.84,21.84,0,0,1,8-6c3.51-1.38-.3,2-1.13,3-8.06,9.62-12.95,29.56-1.53,38.46C51.9,77.52,66.41,77,77.5,75.67a100.41,100.41,0,0,0,15.6-3.11c2.6-.74,5.19-1.57,7.74-2.5.82-.3,1.63-.61,2.45-.93C103.53,69,104.94,69.11,104.08,69.56Z" transform="translate(-29.07 -9.11)"/><path class="cls-5" d="M86.38,66.57s12.45.77,20.14-1.49c0,0,.9.13-.41.54a46.56,46.56,0,0,1-19.9,3.53s-.94,0-.87-.55l.07-.6A1.48,1.48,0,0,1,86.38,66.57Z" transform="translate(-29.07 -9.11)"/></svg>