<svg width="542" height="481" viewBox="0 0 542 481" fill="none" xmlns="http://www.w3.org/2000/svg">
<path d="M414.647 69.4574L249.209 0L209.128 101.07L374.566 170.527L414.647 69.4574Z" fill="#3F3D56"/>
<path d="M282 115C304.091 115 322 96.6437 322 74C322 51.3563 304.091 33 282 33C259.909 33 242 51.3563 242 74C242 96.6437 259.909 115 282 115Z" fill="#0D3411"/>
<path d="M357.136 63.9271L344.728 58.7178L339.665 71.4845L352.073 76.6938L357.136 63.9271Z" fill="#0D3411"/>
<path opacity="0.5" d="M372.646 70.4388L360.238 65.2295L355.175 77.9962L367.583 83.2055L372.646 70.4388Z" fill="#0D3411"/>
<path opacity="0.2" d="M388.156 76.9505L375.748 71.7412L370.685 84.5079L383.093 89.7173L388.156 76.9505Z" fill="#0D3411"/>
<path d="M350.807 79.8861L338.399 74.6768L333.337 87.4435L345.744 92.6528L350.807 79.8861Z" fill="#2F2E41"/>
<path opacity="0.5" d="M366.318 86.3978L353.91 81.1885L348.847 93.9552L361.255 99.1645L366.318 86.3978Z" fill="#2F2E41"/>
<path opacity="0.2" d="M381.827 92.9095L369.419 87.7002L364.357 100.467L376.764 105.676L381.827 92.9095Z" fill="#2F2E41"/>
<path d="M344.479 95.8441L332.071 90.6348L327.008 103.402L339.416 108.611L344.479 95.8441Z" fill="#FF6584"/>
<path opacity="0.5" d="M359.989 102.356L347.581 97.1465L342.518 109.913L354.926 115.123L359.989 102.356Z" fill="#FF6584"/>
<path opacity="0.2" d="M375.499 108.868L363.091 103.658L358.028 116.425L370.436 121.634L375.499 108.868Z" fill="#FF6584"/>
<path opacity="0.5" d="M297.22 36L267 111.888C287.452 120.438 311.825 110.812 320.17 89.8563C328.516 68.9006 317.672 44.5508 297.22 36Z" fill="#3F3D56"/>
<path d="M122.018 120L92.1881 170.19C100.245 175.577 105.941 183.988 108.064 193.633C110.187 203.278 108.569 213.395 103.556 221.83C98.5422 230.266 90.5283 236.354 81.2199 238.799C71.9115 241.244 62.0436 239.853 53.7168 234.921L22 288.286L327.982 481L428 312.714L122.018 120Z" fill="#F2F2F2"/>
<path d="M536 351.49C536 364.468 528.613 369 519.5 369C519.289 369 519.078 368.998 518.868 368.993C518.445 368.983 518.027 368.962 517.614 368.933C509.39 368.325 503 363.56 503 351.49C503 338.998 518.284 323.236 519.432 322.069L519.434 322.067C519.478 322.022 519.5 322 519.5 322C519.5 322 536 338.511 536 351.49Z" fill="#0D3411"/>
<path d="M518.712 367.022L524.819 358.213L518.696 367.989L518.68 369C518.253 368.991 517.829 368.97 517.411 368.94L518.07 355.953L518.065 355.852L518.076 355.833L518.138 354.607L512 344.807L518.157 353.687L518.171 353.947L518.669 344.135L513.414 334.008L518.733 342.413L519.251 322.069L519.253 322V322.067L519.166 338.109L524.398 331.749L519.145 339.491L519.007 348.277L523.891 339.845L518.986 349.569L518.909 354.453L526 342.718L518.882 356.158L518.712 367.022Z" fill="#3F3D56"/>
<path d="M44.5 283C48.0898 283 51 279.866 51 276C51 272.134 48.0898 269 44.5 269C40.9101 269 38 272.134 38 276C38 279.866 40.9101 283 44.5 283Z" fill="#FF6584"/>
<path d="M96 349V272" stroke="#3F3D56" stroke-width="2" stroke-miterlimit="10"/>
<path d="M96.5 283C102.299 283 107 278.299 107 272.5C107 266.701 102.299 262 96.5 262C90.701 262 86 266.701 86 272.5C86 278.299 90.701 283 96.5 283Z" fill="#3F3D56"/>
<path d="M75.539 315.42C60.3628 339.444 64.5211 370 64.5211 370C64.5211 370 93.2848 361.605 108.461 337.58C123.637 313.556 119.479 283 119.479 283C119.479 283 90.7152 291.395 75.539 315.42Z" fill="#3F3D56"/>
<path d="M63.9958 370C63.9958 370 63.6277 369.939 62.9503 369.797C62.4099 369.683 61.6659 369.521 60.7574 369.298C52.6362 367.312 31.0447 360.602 16.9284 342.958C-0.739489 320.866 0.00448888 290 0.00448888 290C0.00448888 290 27.0193 294.551 44.8203 314.391C45.5917 315.243 46.3422 316.127 47.0719 317.042C62.4451 336.264 63.8783 362.128 63.9919 368.522C64.0075 369.48 63.9958 370 63.9958 370Z" fill="#0D3411"/>
<path d="M53.461 315.42C68.6372 339.444 64.4789 370 64.4789 370C64.4789 370 35.7152 361.605 20.539 337.58C5.36285 313.556 9.52111 283 9.52111 283C9.52111 283 38.2848 291.395 53.461 315.42Z" stroke="#3F3D56" stroke-width="2" stroke-miterlimit="10"/>
<path opacity="0.1" d="M64 368.549C63.6108 369.053 63.2674 369.482 62.985 369.834C62.3592 370.599 62.0043 371 62.0043 371C62.0043 371 61.5731 370.419 60.8481 369.331C56.8681 363.383 44.0659 342.232 45.0542 317.801C45.1076 316.52 45.1954 315.253 45.3175 314C46.0692 314.859 46.8006 315.75 47.5116 316.671C62.4927 336.042 63.8894 362.106 64 368.549Z" fill="black"/>
<path d="M86.9451 319.878C85.757 348.597 65.3488 371 65.3488 371C65.3488 371 46.8668 346.841 48.0549 318.122C49.243 289.403 69.6512 267 69.6512 267C69.6512 267 88.1332 291.159 86.9451 319.878Z" fill="#0D3411"/>
<path d="M65 370L70 268" stroke="#3F3D56" stroke-width="2" stroke-miterlimit="10"/>
<path d="M3 368V478H51.2645C51.2645 443.375 70.5 415.306 94.2283 415.306C117.956 415.306 137.192 443.375 137.192 478H170.112C170.112 443.375 189.348 415.306 213.076 415.306C236.804 415.306 256.04 443.375 256.04 478H288.96C288.96 443.375 308.196 415.306 331.924 415.306C355.652 415.306 374.888 443.375 374.888 478H407.808C407.808 443.375 427.043 415.306 450.772 415.306C474.5 415.306 493.736 443.375 493.736 478H542V368H3Z" fill="#3F3D56"/>
<path d="M76 227C89.2548 227 100 215.807 100 202C100 188.193 89.2548 177 76 177C62.7452 177 52 188.193 52 202C52 215.807 62.7452 227 76 227Z" fill="#FF6584"/>
<path d="M287.5 171C296.613 171 304 163.389 304 154C304 144.611 296.613 137 287.5 137C278.387 137 271 144.611 271 154C271 163.389 278.387 171 287.5 171Z" fill="#2F2E41"/>
<path d="M279.728 163C279.728 163 274.582 175.157 273.111 175.549C271.641 175.941 285.241 183 285.241 183C285.241 183 287.815 168.098 288.917 167.314C290.02 166.529 279.728 163 279.728 163Z" fill="#FFB9B9"/>
<path opacity="0.1" d="M279.728 163C279.728 163 274.582 175.157 273.111 175.549C271.641 175.941 285.241 183 285.241 183C285.241 183 287.815 168.098 288.917 167.314C290.02 166.529 279.728 163 279.728 163Z" fill="black"/>
<path d="M247.921 262.4L238 291.6L248.684 296L267 258L247.921 262.4Z" fill="#FFB9B9"/>
<path d="M283 263.633C283 263.633 302.747 291.601 303.886 291.985C305.025 292.368 313 285.471 313 285.471C313 285.471 303.127 261.334 300.089 260.184C297.051 259.035 283 263.633 283 263.633Z" fill="#FFB9B9"/>
<path d="M236.427 286L220.778 328.265C220.778 328.265 221.923 330.635 220.778 331.03C219.633 331.425 216.962 337.745 216.962 338.14C216.962 338.535 214.29 338.93 214.29 340.115C214.29 341.3 212 350.78 212 350.78C212 350.78 216.198 360.26 218.87 357.495C221.542 354.73 222.687 349.2 222.687 349.2L226.503 338.93C226.503 338.93 226.122 333.4 228.794 332.61C231.465 331.82 232.992 321.945 232.992 321.945C232.992 321.945 237.19 317.6 237.954 316.415C238.717 315.23 252.075 294.295 250.93 293.9C249.785 293.505 236.427 286 236.427 286Z" fill="#2F2E41"/>
<path d="M301 291.776L312.589 284C312.589 284 332.676 320.937 332.676 321.715C332.676 322.492 331.904 324.825 332.676 325.603C333.449 326.38 340.016 338.822 344.265 339.989C348.515 341.155 349.287 345.821 345.811 346.598C342.334 347.376 337.698 349.32 336.539 346.598C335.862 344.997 335.088 343.439 334.222 341.933C334.222 341.933 330.359 343.099 329.972 342.321C329.526 341.176 329.14 340.008 328.813 338.822C328.813 338.822 325.723 333.379 325.723 331.435C325.712 330.883 325.514 330.352 325.163 329.928C324.812 329.504 324.329 329.213 323.792 329.102C323.792 329.102 319.542 318.993 316.838 317.438C314.134 315.882 311.816 308.106 311.816 308.106L301 291.776Z" fill="#2F2E41"/>
<path d="M288 172C294.075 172 299 166.851 299 160.5C299 154.149 294.075 149 288 149C281.925 149 277 154.149 277 160.5C277 166.851 281.925 172 288 172Z" fill="#FFB9B9"/>
<path d="M254.756 230C254.756 230 244.023 265.609 246.323 265.609C248.623 265.609 301.901 267.174 303.818 264.043C305.734 260.913 291.935 238.609 291.169 238.217C290.402 237.826 254.756 230 254.756 230Z" fill="#2F2E41"/>
<path d="M238 135.898L226.851 117.845C226.851 117.845 229.608 98.907 225.892 102.439C222.176 105.971 221 120.235 221 120.235L233.912 141L238 135.898Z" fill="#FFB9B9"/>
<path d="M341.792 169.222L352.489 168.397C352.489 168.397 365.167 154.364 365.959 158.904C366.752 163.444 355.659 173.349 355.659 173.349L341 175L341.792 169.222Z" fill="#FFB9B9"/>
<path d="M267 173.385V169.469C267 169.469 256.954 162.813 257.34 161.638C257.727 160.463 256.568 159.68 256.568 159.68C256.568 159.68 255.409 158.114 255.409 157.722C255.409 157.33 253.863 156.939 253.863 156.939L244.204 145.583C244.204 145.583 238.794 134.619 237.635 135.01C236.476 135.402 230.294 137.751 231.067 139.318C231.839 140.884 253.477 174.56 253.477 174.56C253.477 174.56 254.636 182 256.568 182C258.5 182 267 173.385 267 173.385Z" fill="#3F3D56"/>
<path d="M292.519 178.006C292.519 178.006 300.877 177.623 301.256 178.006C301.636 178.388 306.954 178.006 306.954 178.006C306.954 178.006 321.389 174.566 322.529 173.419C323.669 172.273 342.662 167.304 343.422 169.597C344.182 171.89 346.081 176.477 344.182 177.241C342.282 178.005 291 191 291 191L292.519 178.006Z" fill="#3F3D56"/>
<path d="M282 144C285.866 144 289 140.866 289 137C289 133.134 285.866 130 282 130C278.134 130 275 133.134 275 137C275 140.866 278.134 144 282 144Z" fill="#2F2E41"/>
<path d="M272.509 133C272.51 131.27 273.173 129.601 274.371 128.315C275.57 127.03 277.219 126.218 279 126.038C278.749 126.013 278.497 126 278.245 126C276.324 126 274.481 126.737 273.122 128.05C271.763 129.363 271 131.143 271 133C271 134.857 271.763 136.637 273.122 137.95C274.481 139.263 276.324 140 278.245 140C278.497 140 278.749 139.987 279 139.962C277.219 139.782 275.57 138.97 274.371 137.685C273.173 136.399 272.51 134.73 272.509 133Z" fill="#2F2E41"/>
<path d="M289.5 158C295.851 158 301 154.866 301 151C301 147.134 295.851 144 289.5 144C283.149 144 278 147.134 278 151C278 154.866 283.149 158 289.5 158Z" fill="#2F2E41"/>
<path d="M276.467 169.392C276.467 169.392 273.045 172.132 272.285 172.524C271.524 172.915 266.961 169 266.201 169C265.44 169 255.554 180.746 255.554 180.746C255.554 180.746 257.391 182.925 255.554 194.057C254.865 198.232 253.498 216.082 253.498 218.431C253.498 220.78 246.048 226.553 252.892 231.643C259.737 236.733 292.437 242.214 292.817 239.082C293.198 235.95 289.015 227.728 290.916 223.813C292.817 219.898 292.817 205.411 292.817 205.411L295.099 190.142L297 178.005C297 178.005 288.064 175.46 287.304 175.46C286.543 175.46 283.121 180.941 276.467 169.392Z" fill="#3F3D56"/>
</svg>
