<svg width="542" height="490" viewBox="0 0 542 490" fill="none" xmlns="http://www.w3.org/2000/svg">
<g clip-path="url(#clip0_353_324)">
<path d="M494.906 440.798C499.66 451.452 495.629 487.437 495.629 487.437C495.629 487.437 469.232 473.269 464.479 462.619C462.202 457.504 461.62 451.451 462.861 445.791C464.101 440.132 467.063 435.328 471.096 432.436C475.128 429.545 479.901 428.801 484.366 430.369C488.83 431.937 492.622 435.688 494.906 440.798V440.798Z" fill="#F1F1F1"/>
<path d="M496.011 487.39L495.45 487.54C490.049 455.003 471.188 432.939 470.998 432.72L471.384 432.183C471.575 432.403 490.571 454.617 496.011 487.39Z" fill="white"/>
<path d="M538.097 452.93C531.647 467.766 495.279 487.866 495.279 487.866C495.279 487.866 489.283 438.142 495.73 423.309C498.828 416.186 504.031 410.914 510.194 408.655C516.357 406.395 522.976 407.332 528.594 411.26C534.212 415.188 538.37 421.785 540.152 429.599C541.934 437.414 541.195 445.806 538.097 452.93Z" fill="#F1F1F1"/>
<path d="M495.601 488.404L495.055 487.675C521.371 455.985 528.184 411.788 528.249 411.345L529.029 411.531C528.963 411.977 522.108 456.484 495.601 488.404Z" fill="white"/>
<path d="M127.426 340.583C123.264 340.565 119.12 339.886 115.091 338.56L114.297 338.281L113.561 337.813C86.9315 320.884 64.4659 298.523 46.7878 271.352C32.1541 248.727 20.7449 223.039 13.0735 195.443C3.89955 162.404 -0.513991 127.543 0.0435122 92.5229C0.0547616 91.7878 0.064282 91.2203 0.064282 90.8292C0.064282 73.8058 7.51663 58.8691 19.05 52.7757C27.8771 48.1122 108.023 6.37233 113.813 3.35651C124.719 -3.57206 136.353 2.21092 138.215 3.22221C142.391 5.38714 216.481 43.8108 232.491 53.4776C248.992 63.4405 253.394 81.3385 253.394 90.3433C253.394 131.111 247.826 169.211 236.844 203.586C227.975 231.411 215.404 257.098 199.68 279.529C169.342 322.818 138.996 338.164 138.703 338.3C135.076 339.882 131.261 340.654 127.426 340.583ZM120.289 318.169C122.92 318.917 128.977 320.039 132.925 318.212C137.941 315.893 163.34 299.193 187.074 265.326C219.868 218.534 236.507 159.712 236.531 90.4937C236.473 89.0914 235.687 79.0895 225.241 72.7826C209.541 63.3029 132.531 23.3758 131.755 22.9734L131.542 22.859C129.928 22.0015 124.792 20.1953 121.252 22.5477L120.543 22.9668C119.685 23.4138 34.6093 67.7192 25.5359 72.5127C19.1889 75.8659 16.9274 84.1731 16.9274 90.8293C16.9274 91.3157 16.9175 92.0232 16.9035 92.9377C16.1783 140.299 24.8219 256.841 120.289 318.169Z" fill="#3F3D56"/>
<path d="M117.34 13.0774C117.34 13.0774 31.4909 57.7847 22.2929 62.6442C13.0948 67.5037 8.49574 79.1665 8.49574 90.8293C8.49574 102.492 1.5972 254.676 117.34 328.256C117.34 328.256 127.844 331.942 135.814 328.256C143.784 324.571 244.963 262.369 244.963 90.3433C244.963 90.3433 244.963 72.8491 228.866 63.1302C212.77 53.4112 134.945 13.0774 134.945 13.0774C134.945 13.0774 125.388 7.73197 117.34 13.0774Z" fill="#0D3411"/>
<path opacity="0.1" d="M126.538 48.0659V286.564C126.538 286.564 39.9226 233.698 40.6891 94.717L126.538 48.0659Z" fill="black"/>
<path d="M127.667 219.477L100.076 174.494L116.122 158.671L129.186 179.969L173.32 120.896L188.078 138.625L127.667 219.477Z" fill="white"/>
<path d="M541.338 490H289.221C289.045 490 288.877 489.912 288.753 489.754C288.629 489.597 288.559 489.384 288.559 489.161C288.559 488.939 288.629 488.725 288.753 488.568C288.877 488.41 289.045 488.322 289.221 488.322H541.338C541.514 488.322 541.682 488.41 541.806 488.568C541.93 488.725 542 488.939 542 489.161C542 489.384 541.93 489.597 541.806 489.754C541.682 489.912 541.514 490 541.338 490Z" fill="#CACACA"/>
<path d="M362.1 476.774L372.334 476.773L377.203 426.722L362.098 426.723L362.1 476.774Z" fill="#FFB8B8"/>
<path d="M359.489 472.538L379.644 472.537H379.645C383.051 472.537 386.318 474.253 388.727 477.307C391.135 480.361 392.489 484.503 392.489 488.822V489.351L359.49 489.353L359.489 472.538Z" fill="#2F2E41"/>
<path d="M396.51 476.774L406.743 476.773L411.612 426.722L396.508 426.723L396.51 476.774Z" fill="#FFB8B8"/>
<path d="M393.899 472.538L414.054 472.537H414.055C417.461 472.537 420.728 474.253 423.137 477.307C425.545 480.361 426.899 484.503 426.899 488.822V489.351L393.9 489.353L393.899 472.538Z" fill="#2F2E41"/>
<path d="M378.185 301.006L380.641 459.794L360.781 458.233L347.004 357.093L342.653 288.133L378.185 301.006Z" fill="#2F2E41"/>
<path d="M412.267 274.342L415.05 462.312L391.89 461.473L386.887 349.737L378.185 309.281L342.653 288.134L348.454 237.564L400.665 236.644L412.267 274.342Z" fill="#2F2E41"/>
<path d="M372.337 106.082C382.146 106.082 390.097 95.9999 390.097 83.5633C390.097 71.1268 382.146 61.0449 372.337 61.0449C362.529 61.0449 354.578 71.1268 354.578 83.5633C354.578 95.9999 362.529 106.082 372.337 106.082Z" fill="#FFB8B8"/>
<path d="M387.067 115.568L389.788 120.793L397.039 146.538L391.238 246.758L357.156 247.678L352.806 132.746L361.92 118.301L387.067 115.568Z" fill="#CCCCCC"/>
<path d="M339.028 135.504L333.226 134.585C333.226 134.585 331.776 135.504 331.051 141.941C330.326 148.377 321.624 205.383 321.624 205.383L333.226 275.262L346.279 253.195L338.302 214.578L346.279 175.96L339.028 135.504Z" fill="#2F2E41"/>
<path d="M412.992 134.585H417.343L428.22 209.06L418.068 266.986L407.916 245.839L410.816 222.853L409.367 202.625L404.291 190.671L412.992 134.585Z" fill="#2F2E41"/>
<path d="M382.831 83.5635L379.602 82.54C379.602 82.54 377.181 65.1394 371.53 67.1865C365.879 69.2336 351.349 71.2808 351.349 63.0922C351.349 54.9037 365.072 47.7388 373.144 48.7623C381.217 49.7859 391.527 53.1816 394.133 68.21C398.311 92.3014 385.513 98.3865 385.513 98.3865L385.726 97.5094C386.317 95.0738 386.36 92.4772 385.848 90.0128C385.337 87.5483 384.292 85.3144 382.831 83.5635Z" fill="#2F2E41"/>
<path d="M333.952 134.585L357.156 122.632L362.595 117.575L378.911 209.061L386.525 114.816L416.618 134.585L406.466 197.108L405.016 221.013L409.367 240.322C409.367 240.322 424.595 254.114 419.519 268.825C414.443 283.536 408.642 284.456 408.642 284.456C408.642 284.456 383.987 255.033 382.536 247.678C381.086 240.322 378.911 227.45 378.911 227.45C378.911 227.45 366.583 286.295 352.08 285.375C337.578 284.456 337.577 265.147 337.577 265.147L341.203 244.919L347.004 223.772L344.104 188.832L333.952 134.585Z" fill="#2F2E41"/>
</g>
<defs>
<clipPath id="clip0_353_324">
<rect width="542" height="490" fill="white"/>
</clipPath>
</defs>
</svg>
